<?xml version="1.0" standalone="no"?>
<!DOCTYPE svg PUBLIC "-//W3C//DTD SVG 20010904//EN"
 "http://www.w3.org/TR/2001/REC-SVG-20010904/DTD/svg10.dtd">
<svg version="1.0" xmlns="http://www.w3.org/2000/svg"
 width="1199.000000pt" height="1280.000000pt" viewBox="0 0 1199.000000 1280.000000"
 preserveAspectRatio="xMidYMid meet">
<g transform="translate(0.000000,1280.000000) scale(0.100000,-0.100000)"
fill="#000000" stroke="none">
<path d="M4625 12771 c-132 -61 -185 -194 -130 -327 7 -17 44 -67 82 -110 161
-184 256 -320 323 -460 112 -234 105 -433 -22 -659 -58 -103 -109 -170 -319
-427 -232 -284 -300 -380 -378 -528 -278 -534 -174 -1066 328 -1667 113 -136
255 -150 367 -38 43 42 54 61 64 107 25 110 6 154 -151 360 -190 249 -279 459
-279 663 0 118 18 185 85 322 63 127 130 221 374 518 190 231 289 372 357 507
241 479 156 955 -264 1478 -133 166 -215 244 -278 269 -71 27 -86 26 -159 -8z"/>
<path d="M5723 12705 c-89 -45 -140 -139 -130 -240 7 -69 24 -100 105 -193
156 -177 238 -293 306 -429 71 -141 91 -219 90 -348 0 -98 -4 -119 -32 -194
-54 -144 -147 -284 -337 -511 -233 -278 -344 -431 -430 -592 -101 -192 -145
-364 -145 -566 0 -219 41 -387 149 -607 97 -197 324 -515 403 -563 119 -74
274 -31 337 93 21 39 26 63 25 115 -1 79 -13 105 -104 220 -103 130 -176 244
-235 365 -68 138 -98 250 -98 370 -1 228 90 395 463 847 296 358 412 563 466
818 25 114 24 314 0 430 -46 215 -154 439 -316 655 -77 102 -229 278 -265 307
-70 55 -170 64 -252 23z"/>
<path d="M6951 12704 c-90 -45 -139 -136 -128 -240 7 -69 32 -114 118 -209
176 -196 325 -438 366 -595 27 -103 23 -247 -10 -343 -53 -154 -124 -261 -383
-577 -195 -238 -236 -291 -306 -400 -111 -170 -190 -363 -218 -530 -31 -180
-7 -412 61 -607 65 -183 212 -433 371 -628 84 -103 119 -129 189 -144 131 -28
253 55 280 192 18 86 -4 144 -101 267 -163 208 -266 391 -311 555 -31 113 -32
253 0 355 47 152 128 288 298 496 54 67 150 187 214 265 235 291 342 487 395
731 20 92 23 298 5 398 -31 176 -120 385 -240 568 -126 192 -328 422 -396 453
-60 28 -140 25 -204 -7z"/>
<path d="M1087 8116 c-62 -17 -116 -61 -147 -122 l-25 -49 2 -360 c12 -1768
285 -3092 861 -4170 129 -241 285 -490 434 -692 l68 -93 3368 0 3367 1 50 67
c27 37 87 120 134 185 70 98 88 118 105 114 195 -46 260 -58 361 -66 1018 -81
2004 844 2259 2119 51 252 75 552 57 705 -7 55 -17 141 -22 190 -33 285 -136
605 -265 830 -136 234 -341 453 -550 587 -173 111 -439 204 -634 223 -120 11
-108 -10 -112 188 -3 162 -5 176 -29 222 -32 62 -93 110 -159 124 -80 17
-9059 14 -9123 -3z m9478 -1241 c298 -112 527 -434 614 -862 125 -614 -59
-1348 -467 -1863 -66 -83 -218 -235 -297 -295 -150 -115 -308 -194 -463 -232
-79 -19 -275 -24 -292 -7 -9 9 -4 27 19 73 50 98 147 321 200 459 202 524 340
1104 421 1762 32 264 46 429 76 909 l6 94 58 -6 c32 -4 88 -18 125 -32z"/>
<path d="M172 2281 c-69 -24 -108 -61 -143 -138 -35 -75 -35 -89 -7 -165 17
-48 41 -81 131 -176 60 -64 215 -241 345 -392 250 -292 462 -512 602 -624 388
-311 867 -509 1570 -649 162 -33 261 -49 650 -109 l145 -22 2210 0 2210 0 285
51 c815 148 1267 285 1681 509 317 173 544 369 975 845 123 136 281 307 352
381 141 146 157 173 155 270 -2 107 -74 198 -177 225 -41 11 -1049 13 -5491
13 -5247 -1 -5442 -1 -5493 -19z"/>
</g>
</svg>
